<?xml version="1.0" encoding="iso-8859-1"?><!-- Generator: Adobe Illustrator 22.1.0, SVG Export Plug-In . SVG Version: 6.00 Build 0)  --><svg xmlns="http://www.w3.org/2000/svg" xmlns:xlink="http://www.w3.org/1999/xlink" viewBox="0 0 24 24" width="48px" height="48px"><g id="Rounded"><path d="M11.707,15.707C11.512,15.902,11.256,16,11,16s-0.512-0.098-0.707-0.293l-4-4c-0.391-0.391-0.391-1.023,0-1.414s1.023-0.391,1.414,0L11,13.586l8.35-8.35C17.523,3.251,14.911,2,12,2C6.477,2,2,6.477,2,12c0,5.523,4.477,10,10,10s10-4.477,10-10c0-1.885-0.531-3.642-1.438-5.148L11.707,15.707z"/></g></svg>